<svg width="356" height="170" viewBox="0 0 356 170" fill="none" xmlns="http://www.w3.org/2000/svg">
<rect x="69.5" y="38" width="229" height="24" rx="12" fill="#FAEDFF"/>
<rect x="69.5" y="38" width="94.3519" height="24" rx="12" fill="#8A20D5"/>
<rect x="69.5" y="73" width="229" height="24" rx="12" fill="#FAEDFF"/>
<rect x="69.5" y="73" width="121" height="24" rx="12" fill="#8A20D5"/>
<rect x="69.5" y="111" width="229" height="24" rx="12" fill="#FAEDFF"/>
<rect x="69.5" y="111" width="139" height="24" rx="12" fill="#8A20D5"/>
<rect x="69.5" y="146" width="229" height="24" rx="12" fill="#FAEDFF"/>
<rect x="69.5" y="146" width="193" height="24" rx="12" fill="#8A20D5"/>
<circle cx="21" cy="14" r="14" fill="#FFFBFF"/>
<mask id="mask0_165_143" style="mask-type:alpha" maskUnits="userSpaceOnUse" x="13" y="6" width="16" height="16">
<rect x="13" y="6" width="16" height="16" fill="#D9D9D9"/>
</mask>
<g mask="url(#mask0_165_143)">
<mask id="mask1_165_143" style="mask-type:alpha" maskUnits="userSpaceOnUse" x="13" y="6" width="16" height="16">
<rect x="13" y="6" width="16" height="16" fill="#D9D9D9"/>
</mask>
<g mask="url(#mask1_165_143)">
<path d="M22.3 20.6C22.1333 20.6889 21.964 20.7027 21.792 20.6413C21.6195 20.5804 21.4889 20.4667 21.4 20.3L20.4 18.3C20.3111 18.1333 20.2973 17.964 20.3586 17.792C20.4195 17.6196 20.5333 17.4889 20.7 17.4C20.8666 17.3111 21.036 17.2973 21.208 17.3587C21.3804 17.4196 21.5111 17.5333 21.6 17.7L22.6 19.7C22.6889 19.8667 22.7029 20.036 22.642 20.208C22.5806 20.3804 22.4666 20.5111 22.3 20.6ZM26.3 20.6C26.1333 20.6889 25.964 20.7027 25.792 20.6413C25.6195 20.5804 25.4889 20.4667 25.4 20.3L24.4 18.3C24.3111 18.1333 24.2973 17.964 24.3586 17.792C24.4195 17.6196 24.5333 17.4889 24.7 17.4C24.8666 17.3111 25.036 17.2973 25.208 17.3587C25.3804 17.4196 25.5111 17.5333 25.6 17.7L26.6 19.7C26.6889 19.8667 26.7029 20.036 26.642 20.208C26.5806 20.3804 26.4666 20.5111 26.3 20.6ZM18.3 20.6C18.1333 20.6889 17.964 20.7027 17.792 20.6413C17.6195 20.5804 17.4889 20.4667 17.4 20.3L16.4 18.3C16.3111 18.1333 16.2973 17.964 16.3586 17.792C16.4195 17.6196 16.5333 17.4889 16.7 17.4C16.8666 17.3111 17.036 17.2973 17.208 17.3587C17.3804 17.4196 17.5111 17.5333 17.6 17.7L18.6 19.7C18.6889 19.8667 18.7029 20.036 18.642 20.208C18.5806 20.3804 18.4666 20.5111 18.3 20.6ZM18 16.6667C16.9889 16.6667 16.1251 16.3082 15.4086 15.5913C14.6918 14.8749 14.3333 14.0111 14.3333 13C14.3333 12.0778 14.6389 11.2722 15.25 10.5833C15.8611 9.89444 16.6166 9.48888 17.5166 9.36666C17.8722 8.73333 18.3584 8.23599 18.9753 7.87466C19.5918 7.51377 20.2666 7.33333 21 7.33333C22 7.33333 22.8693 7.65288 23.608 8.29199C24.3471 8.93066 24.7944 9.72777 24.95 10.6833C25.7166 10.75 26.3611 11.0667 26.8833 11.6333C27.4055 12.2 27.6666 12.8778 27.6666 13.6667C27.6666 14.5 27.3751 15.2084 26.792 15.792C26.2084 16.3751 25.5 16.6667 24.6666 16.6667H18ZM18 15.3333H24.6666C25.1333 15.3333 25.5278 15.1722 25.85 14.85C26.1722 14.5278 26.3333 14.1333 26.3333 13.6667C26.3333 13.2 26.1722 12.8056 25.85 12.4833C25.5278 12.1611 25.1333 12 24.6666 12H23.6666V11.3333C23.6666 10.6 23.4055 9.97222 22.8833 9.45C22.3611 8.92777 21.7333 8.66666 21 8.66666C20.4666 8.66666 19.9804 8.81111 19.5413 9.1C19.1026 9.38888 18.7722 9.77777 18.55 10.2667L18.3833 10.6667H17.9666C17.3333 10.6889 16.7918 10.9249 16.342 11.3747C15.8918 11.8249 15.6666 12.3667 15.6666 13C15.6666 13.6444 15.8944 14.1944 16.35 14.65C16.8055 15.1056 17.3555 15.3333 18 15.3333Z" fill="#1C1B1F"/>
</g>
</g>
<path d="M144.226 17.224C142.742 17.224 141.501 16.7247 140.502 15.726C139.513 14.7273 139.018 13.4813 139.018 11.988C139.018 10.4947 139.513 9.25333 140.502 8.264C141.491 7.256 142.733 6.752 144.226 6.752C145.738 6.752 146.965 7.298 147.908 8.39L146.984 9.286C146.265 8.418 145.346 7.984 144.226 7.984C143.115 7.984 142.187 8.35733 141.44 9.104C140.703 9.84133 140.334 10.8027 140.334 11.988C140.334 13.1733 140.703 14.1347 141.44 14.872C142.187 15.6187 143.115 15.992 144.226 15.992C145.393 15.992 146.405 15.502 147.264 14.522L148.202 15.432C147.726 16.0013 147.143 16.4447 146.452 16.762C145.761 17.07 145.019 17.224 144.226 17.224ZM149.496 6.976H150.784V10.14L150.728 11.092H150.784C150.98 10.756 151.279 10.476 151.68 10.252C152.091 10.028 152.516 9.916 152.954 9.916C153.794 9.916 154.438 10.1587 154.886 10.644C155.344 11.12 155.572 11.8013 155.572 12.688V17H154.285V12.94C154.285 11.708 153.738 11.092 152.646 11.092C152.124 11.092 151.68 11.3113 151.316 11.75C150.962 12.1793 150.784 12.6833 150.784 13.262V17H149.496V6.976ZM158.104 14.9C158.104 15.236 158.244 15.516 158.524 15.74C158.813 15.964 159.149 16.076 159.532 16.076C160.073 16.076 160.554 15.8753 160.974 15.474C161.403 15.0727 161.618 14.6013 161.618 14.06C161.217 13.7427 160.657 13.584 159.938 13.584C159.415 13.584 158.977 13.71 158.622 13.962C158.277 14.214 158.104 14.5267 158.104 14.9ZM159.77 9.916C160.722 9.916 161.473 10.1727 162.024 10.686C162.575 11.19 162.85 11.8853 162.85 12.772V17H161.618V16.048H161.562C161.03 16.832 160.321 17.224 159.434 17.224C158.678 17.224 158.043 17 157.53 16.552C157.026 16.104 156.774 15.544 156.774 14.872C156.774 14.1627 157.04 13.598 157.572 13.178C158.113 12.758 158.832 12.548 159.728 12.548C160.493 12.548 161.123 12.688 161.618 12.968V12.674C161.618 12.226 161.441 11.848 161.086 11.54C160.731 11.2227 160.316 11.064 159.84 11.064C159.121 11.064 158.552 11.3673 158.132 11.974L156.998 11.26C157.623 10.364 158.547 9.916 159.77 9.916ZM164.453 10.14H165.685V11.092H165.741C165.937 10.756 166.235 10.476 166.637 10.252C167.047 10.028 167.472 9.916 167.911 9.916C168.751 9.916 169.395 10.1587 169.843 10.644C170.3 11.12 170.529 11.8013 170.529 12.688V17H169.241V12.772C169.213 11.652 168.648 11.092 167.547 11.092C167.033 11.092 166.604 11.302 166.259 11.722C165.913 12.1327 165.741 12.6273 165.741 13.206V17H164.453V10.14ZM175.327 17.224C174.309 17.224 173.465 16.8787 172.793 16.188C172.13 15.4787 171.799 14.606 171.799 13.57C171.799 12.5153 172.13 11.6427 172.793 10.952C173.465 10.2613 174.309 9.916 175.327 9.916C176.027 9.916 176.638 10.0933 177.161 10.448C177.683 10.7933 178.075 11.274 178.337 11.89L177.161 12.38C176.797 11.5213 176.157 11.092 175.243 11.092C174.655 11.092 174.146 11.33 173.717 11.806C173.297 12.282 173.087 12.87 173.087 13.57C173.087 14.27 173.297 14.858 173.717 15.334C174.146 15.81 174.655 16.048 175.243 16.048C176.185 16.048 176.848 15.6187 177.231 14.76L178.379 15.25C178.127 15.866 177.73 16.3513 177.189 16.706C176.657 17.0513 176.036 17.224 175.327 17.224ZM182.667 17.224C181.659 17.224 180.828 16.8787 180.175 16.188C179.521 15.4973 179.195 14.6247 179.195 13.57C179.195 12.5247 179.512 11.6567 180.147 10.966C180.781 10.266 181.593 9.916 182.583 9.916C183.6 9.916 184.407 10.2473 185.005 10.91C185.611 11.5633 185.915 12.4827 185.915 13.668L185.901 13.808H180.511C180.529 14.48 180.753 15.0213 181.183 15.432C181.612 15.8427 182.125 16.048 182.723 16.048C183.544 16.048 184.188 15.6373 184.655 14.816L185.803 15.376C185.495 15.9547 185.065 16.4073 184.515 16.734C183.973 17.0607 183.357 17.224 182.667 17.224ZM180.609 12.744H184.543C184.505 12.268 184.309 11.876 183.955 11.568C183.609 11.2507 183.143 11.092 182.555 11.092C182.069 11.092 181.649 11.2413 181.295 11.54C180.949 11.8387 180.721 12.24 180.609 12.744ZM190.077 13.57C190.077 12.5153 190.408 11.6427 191.071 10.952C191.743 10.2613 192.587 9.916 193.605 9.916C194.622 9.916 195.462 10.2613 196.125 10.952C196.797 11.6427 197.133 12.5153 197.133 13.57C197.133 14.634 196.797 15.5067 196.125 16.188C195.462 16.8787 194.622 17.224 193.605 17.224C192.587 17.224 191.743 16.8787 191.071 16.188C190.408 15.4973 190.077 14.6247 190.077 13.57ZM191.365 13.57C191.365 14.3073 191.579 14.9047 192.009 15.362C192.438 15.8193 192.97 16.048 193.605 16.048C194.239 16.048 194.771 15.8193 195.201 15.362C195.63 14.9047 195.845 14.3073 195.845 13.57C195.845 12.842 195.63 12.2493 195.201 11.792C194.762 11.3253 194.23 11.092 193.605 11.092C192.979 11.092 192.447 11.3253 192.009 11.792C191.579 12.2493 191.365 12.842 191.365 13.57ZM201.412 6.864C201.878 6.864 202.261 6.94333 202.56 7.102L202.21 8.236C201.986 8.124 201.734 8.068 201.454 8.068C201.136 8.068 200.875 8.18 200.67 8.404C200.474 8.61867 200.376 8.908 200.376 9.272V10.14H202.168V11.316H200.376V17H199.088V11.316H197.8V10.14H199.088V9.146C199.088 8.46467 199.302 7.914 199.732 7.494C200.17 7.074 200.73 6.864 201.412 6.864ZM208.066 17H206.778V10.14H208.01V11.26H208.066C208.197 10.896 208.463 10.588 208.864 10.336C209.275 10.0747 209.676 9.944 210.068 9.944C210.441 9.944 210.759 10 211.02 10.112L210.628 11.358C210.469 11.2927 210.217 11.26 209.872 11.26C209.387 11.26 208.962 11.456 208.598 11.848C208.243 12.24 208.066 12.6973 208.066 13.22V17ZM212.679 14.9C212.679 15.236 212.819 15.516 213.099 15.74C213.388 15.964 213.724 16.076 214.107 16.076C214.648 16.076 215.129 15.8753 215.549 15.474C215.978 15.0727 216.193 14.6013 216.193 14.06C215.791 13.7427 215.231 13.584 214.513 13.584C213.99 13.584 213.551 13.71 213.197 13.962C212.851 14.214 212.679 14.5267 212.679 14.9ZM214.345 9.916C215.297 9.916 216.048 10.1727 216.599 10.686C217.149 11.19 217.425 11.8853 217.425 12.772V17H216.193V16.048H216.137C215.605 16.832 214.895 17.224 214.009 17.224C213.253 17.224 212.618 17 212.105 16.552C211.601 16.104 211.349 15.544 211.349 14.872C211.349 14.1627 211.615 13.598 212.147 13.178C212.688 12.758 213.407 12.548 214.303 12.548C215.068 12.548 215.698 12.688 216.193 12.968V12.674C216.193 12.226 216.015 11.848 215.661 11.54C215.306 11.2227 214.891 11.064 214.415 11.064C213.696 11.064 213.127 11.3673 212.707 11.974L211.573 11.26C212.198 10.364 213.122 9.916 214.345 9.916ZM220.693 7.774C220.693 8.026 220.605 8.24067 220.427 8.418C220.25 8.59533 220.035 8.684 219.783 8.684C219.531 8.684 219.317 8.59533 219.139 8.418C218.962 8.24067 218.873 8.026 218.873 7.774C218.873 7.522 218.962 7.30733 219.139 7.13C219.317 6.95267 219.531 6.864 219.783 6.864C220.035 6.864 220.25 6.95267 220.427 7.13C220.605 7.30733 220.693 7.522 220.693 7.774ZM220.427 10.14V17H219.139V10.14H220.427ZM222.254 10.14H223.486V11.092H223.542C223.738 10.756 224.036 10.476 224.438 10.252C224.848 10.028 225.273 9.916 225.712 9.916C226.552 9.916 227.196 10.1587 227.644 10.644C228.101 11.12 228.33 11.8013 228.33 12.688V17H227.042V12.772C227.014 11.652 226.449 11.092 225.348 11.092C224.834 11.092 224.405 11.302 224.06 11.722C223.714 12.1327 223.542 12.6273 223.542 13.206V17H222.254V10.14Z" fill="black"/>
<path d="M5.155 55.655L9.94 46.955H4.675V45.74H11.26V47.045L6.28 56.24L5.155 55.655ZM16.9258 45.26H20.5408C21.1408 45.26 21.6958 45.395 22.2058 45.665C22.7158 45.935 23.1208 46.315 23.4208 46.805C23.7308 47.285 23.8858 47.83 23.8858 48.44C23.8858 49.05 23.7308 49.6 23.4208 50.09C23.1208 50.57 22.7158 50.945 22.2058 51.215C21.6958 51.485 21.1408 51.62 20.5408 51.62H18.1858V56H16.9258V45.26ZM20.5708 50.405C20.9708 50.405 21.3208 50.31 21.6208 50.12C21.9308 49.93 22.1708 49.685 22.3408 49.385C22.5108 49.085 22.5958 48.77 22.5958 48.44C22.5958 48.11 22.5108 47.795 22.3408 47.495C22.1708 47.195 21.9308 46.95 21.6208 46.76C21.3208 46.57 20.9708 46.475 20.5708 46.475H18.1858V50.405H20.5708ZM25.7184 45.26H27.5634L30.9834 54.065H31.0434L34.4634 45.26H36.3084V56H35.0484V49.175L35.1084 47.135H35.0484L31.5384 56H30.4884L26.9784 47.135H26.9184L26.9784 49.175V56H25.7184V45.26Z" fill="black"/>
<path d="M8.14 89.24C7.49 89.24 6.9 89.105 6.37 88.835C5.84 88.565 5.425 88.2 5.125 87.74C4.825 87.27 4.675 86.75 4.675 86.18C4.675 85.6 4.83 85.095 5.14 84.665C5.46 84.225 5.875 83.88 6.385 83.63V83.57C5.985 83.33 5.655 83.015 5.395 82.625C5.145 82.225 5.02 81.81 5.02 81.38C5.02 80.84 5.15 80.35 5.41 79.91C5.68 79.47 6.05 79.125 6.52 78.875C7 78.625 7.54 78.5 8.14 78.5C8.73 78.5 9.26 78.625 9.73 78.875C10.21 79.125 10.58 79.47 10.84 79.91C11.11 80.35 11.245 80.84 11.245 81.38C11.245 81.81 11.115 82.225 10.855 82.625C10.605 83.015 10.285 83.33 9.895 83.57V83.63C10.405 83.88 10.815 84.225 11.125 84.665C11.445 85.095 11.605 85.6 11.605 86.18C11.605 86.75 11.45 87.27 11.14 87.74C10.84 88.2 10.425 88.565 9.895 88.835C9.365 89.105 8.78 89.24 8.14 89.24ZM8.14 83.03C8.67 83.03 9.105 82.875 9.445 82.565C9.785 82.255 9.955 81.85 9.955 81.35C9.955 80.85 9.78 80.455 9.43 80.165C9.09 79.865 8.66 79.715 8.14 79.715C7.61 79.715 7.17 79.865 6.82 80.165C6.48 80.455 6.31 80.85 6.31 81.35C6.31 81.85 6.48 82.255 6.82 82.565C7.17 82.875 7.61 83.03 8.14 83.03ZM8.14 88.025C8.75 88.025 9.26 87.85 9.67 87.5C10.09 87.14 10.3 86.675 10.3 86.105C10.3 85.555 10.09 85.105 9.67 84.755C9.26 84.395 8.75 84.215 8.14 84.215C7.53 84.215 7.015 84.395 6.595 84.755C6.175 85.105 5.965 85.555 5.965 86.105C5.965 86.675 6.175 87.14 6.595 87.5C7.015 87.85 7.53 88.025 8.14 88.025ZM17.248 78.26H20.863C21.463 78.26 22.018 78.395 22.528 78.665C23.038 78.935 23.443 79.315 23.743 79.805C24.053 80.285 24.208 80.83 24.208 81.44C24.208 82.05 24.053 82.6 23.743 83.09C23.443 83.57 23.038 83.945 22.528 84.215C22.018 84.485 21.463 84.62 20.863 84.62H18.508V89H17.248V78.26ZM20.893 83.405C21.293 83.405 21.643 83.31 21.943 83.12C22.253 82.93 22.493 82.685 22.663 82.385C22.833 82.085 22.918 81.77 22.918 81.44C22.918 81.11 22.833 80.795 22.663 80.495C22.493 80.195 22.253 79.95 21.943 79.76C21.643 79.57 21.293 79.475 20.893 79.475H18.508V83.405H20.893ZM26.0406 78.26H27.8856L31.3056 87.065H31.3656L34.7856 78.26H36.6306V89H35.3706V82.175L35.4306 80.135H35.3706L31.8606 89H30.8106L27.3006 80.135H27.2406L27.3006 82.175V89H26.0406V78.26Z" fill="black"/>
<path d="M6.67 121.535L9.25 117.92L9.22 117.89C8.87 118.13 8.425 118.25 7.885 118.25C7.365 118.25 6.855 118.105 6.355 117.815C5.855 117.525 5.45 117.13 5.14 116.63C4.83 116.12 4.675 115.555 4.675 114.935C4.675 114.335 4.83 113.775 5.14 113.255C5.46 112.725 5.885 112.3 6.415 111.98C6.955 111.66 7.54 111.5 8.17 111.5C8.85 111.5 9.455 111.665 9.985 111.995C10.525 112.325 10.94 112.755 11.23 113.285C11.53 113.805 11.68 114.355 11.68 114.935C11.68 115.485 11.565 116.015 11.335 116.525C11.115 117.025 10.795 117.585 10.375 118.205L7.69 122.24L6.67 121.535ZM8.17 117.11C8.57 117.11 8.94 117.015 9.28 116.825C9.63 116.625 9.905 116.36 10.105 116.03C10.305 115.69 10.405 115.32 10.405 114.92C10.405 114.51 10.305 114.14 10.105 113.81C9.905 113.47 9.63 113.205 9.28 113.015C8.94 112.815 8.57 112.715 8.17 112.715C7.77 112.715 7.4 112.815 7.06 113.015C6.72 113.205 6.45 113.47 6.25 113.81C6.05 114.14 5.95 114.51 5.95 114.92C5.95 115.32 6.05 115.69 6.25 116.03C6.45 116.36 6.72 116.625 7.06 116.825C7.4 117.015 7.77 117.11 8.17 117.11ZM17.3359 111.26H20.9509C21.5509 111.26 22.1059 111.395 22.6159 111.665C23.1259 111.935 23.5309 112.315 23.8309 112.805C24.1409 113.285 24.2959 113.83 24.2959 114.44C24.2959 115.05 24.1409 115.6 23.8309 116.09C23.5309 116.57 23.1259 116.945 22.6159 117.215C22.1059 117.485 21.5509 117.62 20.9509 117.62H18.5959V122H17.3359V111.26ZM20.9809 116.405C21.3809 116.405 21.7309 116.31 22.0309 116.12C22.3409 115.93 22.5809 115.685 22.7509 115.385C22.9209 115.085 23.0059 114.77 23.0059 114.44C23.0059 114.11 22.9209 113.795 22.7509 113.495C22.5809 113.195 22.3409 112.95 22.0309 112.76C21.7309 112.57 21.3809 112.475 20.9809 112.475H18.5959V116.405H20.9809ZM26.1285 111.26H27.9735L31.3935 120.065H31.4535L34.8735 111.26H36.7185V122H35.4585V115.175L35.5185 113.135H35.4585L31.9485 122H30.8985L27.3885 113.135H27.3285L27.3885 115.175V122H26.1285V111.26Z" fill="black"/>
<path d="M3.135 146.525L1.335 147.815L0.675 146.84L3.6 144.74H4.41V155H3.135V146.525ZM10.6782 155.24C9.86824 155.24 9.14824 155.005 8.51824 154.535C7.89824 154.055 7.41824 153.41 7.07824 152.6C6.74824 151.78 6.58324 150.87 6.58324 149.87C6.58324 148.87 6.74824 147.965 7.07824 147.155C7.41824 146.335 7.89824 145.69 8.51824 145.22C9.13824 144.74 9.85824 144.5 10.6782 144.5C11.4982 144.5 12.2182 144.74 12.8382 145.22C13.4582 145.69 13.9332 146.335 14.2632 147.155C14.6032 147.965 14.7732 148.87 14.7732 149.87C14.7732 150.87 14.6032 151.78 14.2632 152.6C13.9332 153.41 13.4532 154.055 12.8232 154.535C12.2032 155.005 11.4882 155.24 10.6782 155.24ZM10.6782 154.025C11.2482 154.025 11.7432 153.845 12.1632 153.485C12.5832 153.115 12.9082 152.615 13.1382 151.985C13.3682 151.355 13.4832 150.65 13.4832 149.87C13.4832 149.09 13.3682 148.385 13.1382 147.755C12.9082 147.125 12.5832 146.63 12.1632 146.27C11.7432 145.9 11.2482 145.715 10.6782 145.715C10.1082 145.715 9.61324 145.9 9.19324 146.27C8.77324 146.63 8.44824 147.125 8.21824 147.755C7.98824 148.385 7.87324 149.09 7.87324 149.87C7.87324 150.65 7.98824 151.355 8.21824 151.985C8.44824 152.615 8.77324 153.115 9.19324 153.485C9.61324 153.845 10.1082 154.025 10.6782 154.025ZM20.5025 144.26H24.1175C24.7175 144.26 25.2725 144.395 25.7825 144.665C26.2925 144.935 26.6975 145.315 26.9975 145.805C27.3075 146.285 27.4625 146.83 27.4625 147.44C27.4625 148.05 27.3075 148.6 26.9975 149.09C26.6975 149.57 26.2925 149.945 25.7825 150.215C25.2725 150.485 24.7175 150.62 24.1175 150.62H21.7625V155H20.5025V144.26ZM24.1475 149.405C24.5475 149.405 24.8975 149.31 25.1975 149.12C25.5075 148.93 25.7475 148.685 25.9175 148.385C26.0875 148.085 26.1725 147.77 26.1725 147.44C26.1725 147.11 26.0875 146.795 25.9175 146.495C25.7475 146.195 25.5075 145.95 25.1975 145.76C24.8975 145.57 24.5475 145.475 24.1475 145.475H21.7625V149.405H24.1475ZM29.2951 144.26H31.1401L34.5601 153.065H34.6201L38.0401 144.26H39.8851V155H38.6251V148.175L38.6851 146.135H38.6251L35.1151 155H34.0651L30.5551 146.135H30.4951L30.5551 148.175V155H29.2951V144.26Z" fill="black"/>
<path d="M333.14 64.68V66H326.6V64.62L329.255 61.935C330.145 61.025 330.76 60.345 331.1 59.895C331.44 59.435 331.61 58.955 331.61 58.455C331.61 58.005 331.435 57.62 331.085 57.3C330.735 56.98 330.285 56.82 329.735 56.82C329.265 56.82 328.86 56.96 328.52 57.24C328.18 57.52 327.96 57.86 327.86 58.26L326.6 57.75C326.8 57.12 327.185 56.59 327.755 56.16C328.325 55.72 328.995 55.5 329.765 55.5C330.695 55.5 331.47 55.785 332.09 56.355C332.71 56.925 333.02 57.625 333.02 58.455C333.02 59.445 332.475 60.515 331.385 61.665L328.385 64.68H333.14ZM341.038 57.15L336.058 66.24L334.828 65.61L339.583 57.06H334.393L334.423 55.74H341.038V57.15ZM347.255 58.065C347.255 58.765 347 59.37 346.49 59.88C345.99 60.38 345.39 60.63 344.69 60.63C344 60.63 343.395 60.38 342.875 59.88C342.375 59.36 342.125 58.755 342.125 58.065C342.125 57.365 342.375 56.765 342.875 56.265C343.385 55.755 343.99 55.5 344.69 55.5C345.39 55.5 345.99 55.755 346.49 56.265C347 56.765 347.255 57.365 347.255 58.065ZM351.5 56.19L344.84 66.12L343.985 65.565L350.66 55.62L351.5 56.19ZM346.145 58.065C346.145 57.615 346.005 57.245 345.725 56.955C345.455 56.655 345.11 56.505 344.69 56.505C344.28 56.505 343.935 56.655 343.655 56.955C343.375 57.245 343.235 57.615 343.235 58.065C343.235 58.515 343.375 58.885 343.655 59.175C343.935 59.475 344.28 59.625 344.69 59.625C345.11 59.625 345.455 59.48 345.725 59.19C346.005 58.89 346.145 58.515 346.145 58.065ZM353.375 63.675C353.375 64.375 353.12 64.98 352.61 65.49C352.11 65.99 351.51 66.24 350.81 66.24C350.12 66.24 349.515 65.99 348.995 65.49C348.495 64.97 348.245 64.365 348.245 63.675C348.245 62.975 348.495 62.375 348.995 61.875C349.505 61.365 350.11 61.11 350.81 61.11C351.51 61.11 352.11 61.365 352.61 61.875C353.12 62.375 353.375 62.975 353.375 63.675ZM352.265 63.675C352.265 63.225 352.125 62.855 351.845 62.565C351.575 62.265 351.23 62.115 350.81 62.115C350.4 62.115 350.055 62.265 349.775 62.565C349.495 62.855 349.355 63.225 349.355 63.675C349.355 64.125 349.495 64.495 349.775 64.785C350.055 65.085 350.4 65.235 350.81 65.235C351.23 65.235 351.575 65.09 351.845 64.8C352.125 64.5 352.265 64.125 352.265 63.675Z" fill="black"/>
<path d="M332.855 99.84V102H331.475V99.84H326.6V98.79L331.355 91.74H332.855V98.55H334.175V99.84H332.855ZM328.16 98.55H331.475V93.765H331.415L328.16 98.55ZM341.688 99.84V102H340.308V99.84H335.433V98.79L340.188 91.74H341.688V98.55H343.008V99.84H341.688ZM336.993 98.55H340.308V93.765H340.248L336.993 98.55ZM349.276 94.065C349.276 94.765 349.021 95.37 348.511 95.88C348.011 96.38 347.411 96.63 346.711 96.63C346.021 96.63 345.416 96.38 344.896 95.88C344.396 95.36 344.146 94.755 344.146 94.065C344.146 93.365 344.396 92.765 344.896 92.265C345.406 91.755 346.011 91.5 346.711 91.5C347.411 91.5 348.011 91.755 348.511 92.265C349.021 92.765 349.276 93.365 349.276 94.065ZM353.521 92.19L346.861 102.12L346.006 101.565L352.681 91.62L353.521 92.19ZM348.166 94.065C348.166 93.615 348.026 93.245 347.746 92.955C347.476 92.655 347.131 92.505 346.711 92.505C346.301 92.505 345.956 92.655 345.676 92.955C345.396 93.245 345.256 93.615 345.256 94.065C345.256 94.515 345.396 94.885 345.676 95.175C345.956 95.475 346.301 95.625 346.711 95.625C347.131 95.625 347.476 95.48 347.746 95.19C348.026 94.89 348.166 94.515 348.166 94.065ZM355.396 99.675C355.396 100.375 355.141 100.98 354.631 101.49C354.131 101.99 353.531 102.24 352.831 102.24C352.141 102.24 351.536 101.99 351.016 101.49C350.516 100.97 350.266 100.365 350.266 99.675C350.266 98.975 350.516 98.375 351.016 97.875C351.526 97.365 352.131 97.11 352.831 97.11C353.531 97.11 354.131 97.365 354.631 97.875C355.141 98.375 355.396 98.975 355.396 99.675ZM354.286 99.675C354.286 99.225 354.146 98.855 353.866 98.565C353.596 98.265 353.251 98.115 352.831 98.115C352.421 98.115 352.076 98.265 351.796 98.565C351.516 98.855 351.376 99.225 351.376 99.675C351.376 100.125 351.516 100.495 351.796 100.785C352.076 101.085 352.421 101.235 352.831 101.235C353.251 101.235 353.596 101.09 353.866 100.8C354.146 100.5 354.286 100.125 354.286 99.675Z" fill="black"/>
<path d="M333.605 134.79C333.605 135.77 333.265 136.59 332.585 137.25C331.905 137.91 331.065 138.24 330.065 138.24C329.265 138.24 328.54 137.99 327.89 137.49C327.24 136.99 326.81 136.315 326.6 135.465L327.83 134.97C327.98 135.57 328.25 136.045 328.64 136.395C329.04 136.745 329.505 136.92 330.035 136.92C330.675 136.92 331.195 136.725 331.595 136.335C332.005 135.935 332.21 135.425 332.21 134.805C332.21 134.175 332.005 133.66 331.595 133.26C331.195 132.86 330.68 132.66 330.05 132.66C329.32 132.66 328.745 132.955 328.325 133.545L326.93 132.945L327.59 127.74H332.975V129.06H328.745L328.37 132L328.43 132.015C328.94 131.605 329.56 131.4 330.29 131.4C331.21 131.4 331.99 131.725 332.63 132.375C333.28 133.025 333.605 133.83 333.605 134.79ZM338.745 131.49C339.575 131.49 340.315 131.82 340.965 132.48C341.625 133.13 341.955 133.905 341.955 134.805C341.955 135.725 341.605 136.53 340.905 137.22C340.195 137.9 339.375 138.24 338.445 138.24C337.455 138.24 336.62 137.9 335.94 137.22C335.26 136.54 334.92 135.735 334.92 134.805C334.92 133.975 335.255 133.03 335.925 131.97L338.91 127.5L340.02 128.265L337.485 131.775L337.515 131.805C337.825 131.595 338.235 131.49 338.745 131.49ZM336.315 134.82C336.315 135.41 336.52 135.91 336.93 136.32C337.34 136.72 337.845 136.92 338.445 136.92C339.045 136.92 339.545 136.72 339.945 136.32C340.355 135.91 340.56 135.41 340.56 134.82C340.56 134.24 340.35 133.745 339.93 133.335C339.52 132.925 339.025 132.72 338.445 132.72C337.875 132.72 337.375 132.925 336.945 133.335C336.525 133.745 336.315 134.24 336.315 134.82ZM347.87 130.065C347.87 130.765 347.615 131.37 347.105 131.88C346.605 132.38 346.005 132.63 345.305 132.63C344.615 132.63 344.01 132.38 343.49 131.88C342.99 131.36 342.74 130.755 342.74 130.065C342.74 129.365 342.99 128.765 343.49 128.265C344 127.755 344.605 127.5 345.305 127.5C346.005 127.5 346.605 127.755 347.105 128.265C347.615 128.765 347.87 129.365 347.87 130.065ZM352.115 128.19L345.455 138.12L344.6 137.565L351.275 127.62L352.115 128.19ZM346.76 130.065C346.76 129.615 346.62 129.245 346.34 128.955C346.07 128.655 345.725 128.505 345.305 128.505C344.895 128.505 344.55 128.655 344.27 128.955C343.99 129.245 343.85 129.615 343.85 130.065C343.85 130.515 343.99 130.885 344.27 131.175C344.55 131.475 344.895 131.625 345.305 131.625C345.725 131.625 346.07 131.48 346.34 131.19C346.62 130.89 346.76 130.515 346.76 130.065ZM353.99 135.675C353.99 136.375 353.735 136.98 353.225 137.49C352.725 137.99 352.125 138.24 351.425 138.24C350.735 138.24 350.13 137.99 349.61 137.49C349.11 136.97 348.86 136.365 348.86 135.675C348.86 134.975 349.11 134.375 349.61 133.875C350.12 133.365 350.725 133.11 351.425 133.11C352.125 133.11 352.725 133.365 353.225 133.875C353.735 134.375 353.99 134.975 353.99 135.675ZM352.88 135.675C352.88 135.225 352.74 134.855 352.46 134.565C352.19 134.265 351.845 134.115 351.425 134.115C351.015 134.115 350.67 134.265 350.39 134.565C350.11 134.855 349.97 135.225 349.97 135.675C349.97 136.125 350.11 136.495 350.39 136.785C350.67 137.085 351.015 137.235 351.425 137.235C351.845 137.235 352.19 137.09 352.46 136.8C352.74 136.5 352.88 136.125 352.88 135.675Z" fill="black"/>
</svg>
