<svg width="352" height="190" viewBox="0 0 352 190" fill="none" xmlns="http://www.w3.org/2000/svg">
<path d="M10.5822 149.94H5.46216V148.724H10.5822V149.94ZM15.788 143.348V154.292H14.316V145.172L12.188 146.1L11.628 144.852L14.844 143.348H15.788ZM17.8327 148.82C17.8327 147.156 18.2433 145.786 19.0647 144.708C19.886 143.631 20.942 143.092 22.2327 143.092C23.5233 143.092 24.5793 143.636 25.4007 144.724C26.222 145.802 26.6327 147.167 26.6327 148.82C26.6327 150.463 26.222 151.834 25.4007 152.932C24.5793 154.01 23.5233 154.548 22.2327 154.548C20.942 154.548 19.886 154.01 19.0647 152.932C18.2433 151.834 17.8327 150.463 17.8327 148.82ZM25.1287 148.82C25.1287 147.562 24.862 146.527 24.3287 145.716C23.806 144.906 23.1073 144.5 22.2327 144.5C21.358 144.5 20.6593 144.906 20.1367 145.716C19.6033 146.527 19.3367 147.562 19.3367 148.82C19.3367 150.079 19.6033 151.119 20.1367 151.94C20.6593 152.74 21.358 153.14 22.2327 153.14C23.1073 153.14 23.806 152.735 24.3287 151.924C24.862 151.103 25.1287 150.068 25.1287 148.82ZM32.0198 145.156C32.0198 145.732 31.8118 146.218 31.3958 146.612C30.9905 147.018 30.5051 147.22 29.9398 147.22C29.3745 147.22 28.8785 147.018 28.4518 146.612C28.0465 146.207 27.8438 145.722 27.8438 145.156C27.8438 144.591 28.0465 144.106 28.4518 143.7C28.8785 143.295 29.3745 143.092 29.9398 143.092C30.5158 143.092 31.0065 143.295 31.4118 143.7C31.8171 144.106 32.0198 144.591 32.0198 145.156ZM29.9398 146.196C30.2065 146.196 30.4358 146.095 30.6278 145.892C30.8305 145.679 30.9318 145.434 30.9318 145.156C30.9425 144.858 30.8411 144.612 30.6278 144.42C30.4145 144.218 30.1745 144.116 29.9078 144.116C29.6411 144.116 29.4118 144.218 29.2198 144.42C29.0278 144.602 28.9318 144.831 28.9318 145.108C28.9318 145.247 28.9531 145.386 28.9958 145.524C29.0491 145.652 29.1185 145.77 29.2038 145.876C29.2998 145.972 29.4065 146.052 29.5238 146.116C29.6518 146.18 29.7905 146.207 29.9398 146.196Z" fill="black"/>
<path d="M11.2702 106.82C11.2702 105.156 11.6808 103.786 12.5022 102.708C13.3235 101.631 14.3795 101.092 15.6702 101.092C16.9608 101.092 18.0168 101.636 18.8382 102.724C19.6595 103.802 20.0702 105.167 20.0702 106.82C20.0702 108.463 19.6595 109.834 18.8382 110.932C18.0168 112.01 16.9608 112.548 15.6702 112.548C14.3795 112.548 13.3235 112.01 12.5022 110.932C11.6808 109.834 11.2702 108.463 11.2702 106.82ZM18.5662 106.82C18.5662 105.562 18.2995 104.527 17.7662 103.716C17.2435 102.906 16.5448 102.5 15.6702 102.5C14.7955 102.5 14.0968 102.906 13.5742 103.716C13.0408 104.527 12.7742 105.562 12.7742 106.82C12.7742 108.079 13.0408 109.119 13.5742 109.94C14.0968 110.74 14.7955 111.14 15.6702 111.14C16.5448 111.14 17.2435 110.735 17.7662 109.924C18.2995 109.103 18.5662 108.068 18.5662 106.82ZM25.4573 103.156C25.4573 103.732 25.2493 104.218 24.8333 104.612C24.428 105.018 23.9426 105.22 23.3773 105.22C22.812 105.22 22.316 105.018 21.8893 104.612C21.484 104.207 21.2813 103.722 21.2813 103.156C21.2813 102.591 21.484 102.106 21.8893 101.7C22.316 101.295 22.812 101.092 23.3773 101.092C23.9533 101.092 24.444 101.295 24.8493 101.7C25.2546 102.106 25.4573 102.591 25.4573 103.156ZM23.3773 104.196C23.644 104.196 23.8733 104.095 24.0653 103.892C24.268 103.679 24.3693 103.434 24.3693 103.156C24.38 102.858 24.2786 102.612 24.0653 102.42C23.852 102.218 23.612 102.116 23.3453 102.116C23.0786 102.116 22.8493 102.218 22.6573 102.42C22.4653 102.602 22.3693 102.831 22.3693 103.108C22.3693 103.247 22.3906 103.386 22.4333 103.524C22.4866 103.652 22.556 103.77 22.6413 103.876C22.7373 103.972 22.844 104.052 22.9613 104.116C23.0893 104.18 23.228 104.207 23.3773 104.196Z" fill="black"/>
<circle cx="14.5662" cy="14.2923" r="14" fill="#FFFBFF"/>
<mask id="mask0_166_144" style="mask-type:alpha" maskUnits="userSpaceOnUse" x="6" y="6" width="17" height="17">
<rect x="6.56616" y="6.2923" width="16" height="16" fill="#D9D9D9"/>
</mask>
<g mask="url(#mask0_166_144)">
<path d="M9.8995 20.959C9.53283 20.959 9.21883 20.8285 8.9575 20.5676C8.69661 20.3063 8.56616 19.9923 8.56616 19.6256V10.2923C8.56616 9.92563 8.69661 9.61185 8.9575 9.35096C9.21883 9.08963 9.53283 8.95896 9.8995 8.95896H10.5662V7.62563H11.8995V8.95896H17.2328V7.62563H18.5662V8.95896H19.2328C19.5995 8.95896 19.9135 9.08963 20.1748 9.35096C20.4357 9.61185 20.5662 9.92563 20.5662 10.2923V19.6256C20.5662 19.9923 20.4357 20.3063 20.1748 20.5676C19.9135 20.8285 19.5995 20.959 19.2328 20.959H9.8995ZM9.8995 19.6256H19.2328V12.959H9.8995V19.6256ZM9.8995 11.6256H19.2328V10.2923H9.8995V11.6256ZM14.5662 15.6256C14.3773 15.6256 14.2191 15.5616 14.0915 15.4336C13.9635 15.3061 13.8995 15.1479 13.8995 14.959C13.8995 14.7701 13.9635 14.6116 14.0915 14.4836C14.2191 14.3561 14.3773 14.2923 14.5662 14.2923C14.7551 14.2923 14.9135 14.3561 15.0415 14.4836C15.1691 14.6116 15.2328 14.7701 15.2328 14.959C15.2328 15.1479 15.1691 15.3061 15.0415 15.4336C14.9135 15.5616 14.7551 15.6256 14.5662 15.6256ZM11.8995 15.6256C11.7106 15.6256 11.5522 15.5616 11.4242 15.4336C11.2966 15.3061 11.2328 15.1479 11.2328 14.959C11.2328 14.7701 11.2966 14.6116 11.4242 14.4836C11.5522 14.3561 11.7106 14.2923 11.8995 14.2923C12.0884 14.2923 12.2468 14.3561 12.3748 14.4836C12.5024 14.6116 12.5662 14.7701 12.5662 14.959C12.5662 15.1479 12.5024 15.3061 12.3748 15.4336C12.2468 15.5616 12.0884 15.6256 11.8995 15.6256ZM17.2328 15.6256C17.0439 15.6256 16.8857 15.5616 16.7582 15.4336C16.6302 15.3061 16.5662 15.1479 16.5662 14.959C16.5662 14.7701 16.6302 14.6116 16.7582 14.4836C16.8857 14.3561 17.0439 14.2923 17.2328 14.2923C17.4217 14.2923 17.5799 14.3561 17.7075 14.4836C17.8355 14.6116 17.8995 14.7701 17.8995 14.959C17.8995 15.1479 17.8355 15.3061 17.7075 15.4336C17.5799 15.5616 17.4217 15.6256 17.2328 15.6256ZM14.5662 18.2923C14.3773 18.2923 14.2191 18.2283 14.0915 18.1003C13.9635 17.9727 13.8995 17.8145 13.8995 17.6256C13.8995 17.4367 13.9635 17.2785 14.0915 17.151C14.2191 17.023 14.3773 16.959 14.5662 16.959C14.7551 16.959 14.9135 17.023 15.0415 17.151C15.1691 17.2785 15.2328 17.4367 15.2328 17.6256C15.2328 17.8145 15.1691 17.9727 15.0415 18.1003C14.9135 18.2283 14.7551 18.2923 14.5662 18.2923ZM11.8995 18.2923C11.7106 18.2923 11.5522 18.2283 11.4242 18.1003C11.2966 17.9727 11.2328 17.8145 11.2328 17.6256C11.2328 17.4367 11.2966 17.2785 11.4242 17.151C11.5522 17.023 11.7106 16.959 11.8995 16.959C12.0884 16.959 12.2468 17.023 12.3748 17.151C12.5024 17.2785 12.5662 17.4367 12.5662 17.6256C12.5662 17.8145 12.5024 17.9727 12.3748 18.1003C12.2468 18.2283 12.0884 18.2923 11.8995 18.2923ZM17.2328 18.2923C17.0439 18.2923 16.8857 18.2283 16.7582 18.1003C16.6302 17.9727 16.5662 17.8145 16.5662 17.6256C16.5662 17.4367 16.6302 17.2785 16.7582 17.151C16.8857 17.023 17.0439 16.959 17.2328 16.959C17.4217 16.959 17.5799 17.023 17.7075 17.151C17.8355 17.2785 17.8995 17.4367 17.8995 17.6256C17.8995 17.8145 17.8355 17.9727 17.7075 18.1003C17.5799 18.2283 17.4217 18.2923 17.2328 18.2923Z" fill="#1C1B1F"/>
</g>
<path d="M155.574 17.2923V7.2683H158.64C160.171 7.2683 161.398 7.7303 162.322 8.6543C163.255 9.5783 163.722 10.787 163.722 12.2803C163.722 13.783 163.255 14.9963 162.322 15.9203C161.398 16.835 160.171 17.2923 158.64 17.2923H155.574ZM156.862 8.5003V16.0603H158.64C159.807 16.0603 160.726 15.729 161.398 15.0663C162.07 14.3943 162.406 13.4656 162.406 12.2803C162.406 11.1043 162.07 10.1803 161.398 9.5083C160.726 8.8363 159.807 8.5003 158.64 8.5003H156.862ZM166.118 15.1923C166.118 15.5283 166.258 15.8083 166.538 16.0323C166.827 16.2563 167.163 16.3683 167.546 16.3683C168.087 16.3683 168.568 16.1676 168.988 15.7663C169.417 15.365 169.632 14.8936 169.632 14.3523C169.231 14.035 168.671 13.8763 167.952 13.8763C167.429 13.8763 166.991 14.0023 166.636 14.2543C166.291 14.5063 166.118 14.819 166.118 15.1923ZM167.784 10.2083C168.736 10.2083 169.487 10.465 170.038 10.9783C170.589 11.4823 170.864 12.1776 170.864 13.0643V17.2923H169.632V16.3403H169.576C169.044 17.1243 168.335 17.5163 167.448 17.5163C166.692 17.5163 166.057 17.2923 165.544 16.8443C165.04 16.3963 164.788 15.8363 164.788 15.1643C164.788 14.455 165.054 13.8903 165.586 13.4703C166.127 13.0503 166.846 12.8403 167.742 12.8403C168.507 12.8403 169.137 12.9803 169.632 13.2603V12.9663C169.632 12.5183 169.455 12.1403 169.1 11.8323C168.745 11.515 168.33 11.3563 167.854 11.3563C167.135 11.3563 166.566 11.6596 166.146 12.2663L165.012 11.5523C165.637 10.6563 166.561 10.2083 167.784 10.2083ZM178.462 10.4323L174.164 20.3163H172.834L174.43 16.8583L171.602 10.4323H173.002L175.046 15.3603H175.074L177.062 10.4323H178.462ZM185.569 7.1563C186.036 7.1563 186.419 7.23563 186.717 7.3943L186.367 8.5283C186.143 8.4163 185.891 8.3603 185.611 8.3603C185.294 8.3603 185.033 8.4723 184.827 8.6963C184.631 8.91096 184.533 9.2003 184.533 9.5643V10.4323H186.325V11.6083H184.533V17.2923H183.245V11.6083H181.957V10.4323H183.245V9.4383C183.245 8.75696 183.46 8.2063 183.889 7.7863C184.328 7.3663 184.888 7.1563 185.569 7.1563ZM186.894 13.8623C186.894 12.8076 187.225 11.935 187.888 11.2443C188.56 10.5536 189.404 10.2083 190.422 10.2083C191.439 10.2083 192.279 10.5536 192.942 11.2443C193.614 11.935 193.95 12.8076 193.95 13.8623C193.95 14.9263 193.614 15.799 192.942 16.4803C192.279 17.171 191.439 17.5163 190.422 17.5163C189.404 17.5163 188.56 17.171 187.888 16.4803C187.225 15.7896 186.894 14.917 186.894 13.8623ZM188.182 13.8623C188.182 14.5996 188.396 15.197 188.826 15.6543C189.255 16.1116 189.787 16.3403 190.422 16.3403C191.056 16.3403 191.588 16.1116 192.018 15.6543C192.447 15.197 192.662 14.5996 192.662 13.8623C192.662 13.1343 192.447 12.5416 192.018 12.0843C191.579 11.6176 191.047 11.3843 190.422 11.3843C189.796 11.3843 189.264 11.6176 188.826 12.0843C188.396 12.5416 188.182 13.1343 188.182 13.8623ZM196.421 17.2923H195.133V10.4323H196.365V11.5523H196.421C196.552 11.1883 196.818 10.8803 197.219 10.6283C197.63 10.367 198.031 10.2363 198.423 10.2363C198.796 10.2363 199.114 10.2923 199.375 10.4043L198.983 11.6503C198.824 11.585 198.572 11.5523 198.227 11.5523C197.742 11.5523 197.317 11.7483 196.953 12.1403C196.598 12.5323 196.421 12.9896 196.421 13.5123V17.2923ZM203.025 17.5163C202.017 17.5163 201.186 17.171 200.533 16.4803C199.88 15.7896 199.553 14.917 199.553 13.8623C199.553 12.817 199.87 11.949 200.505 11.2583C201.14 10.5583 201.952 10.2083 202.941 10.2083C203.958 10.2083 204.766 10.5396 205.363 11.2023C205.97 11.8556 206.273 12.775 206.273 13.9603L206.259 14.1003H200.869C200.888 14.7723 201.112 15.3136 201.541 15.7243C201.97 16.135 202.484 16.3403 203.081 16.3403C203.902 16.3403 204.546 15.9296 205.013 15.1083L206.161 15.6683C205.853 16.247 205.424 16.6996 204.873 17.0263C204.332 17.353 203.716 17.5163 203.025 17.5163ZM200.967 13.0363H204.901C204.864 12.5603 204.668 12.1683 204.313 11.8603C203.968 11.543 203.501 11.3843 202.913 11.3843C202.428 11.3843 202.008 11.5336 201.653 11.8323C201.308 12.131 201.079 12.5323 200.967 13.0363ZM210.805 17.5163C209.788 17.5163 208.943 17.171 208.271 16.4803C207.609 15.771 207.277 14.8983 207.277 13.8623C207.277 12.8076 207.609 11.935 208.271 11.2443C208.943 10.5536 209.788 10.2083 210.805 10.2083C211.505 10.2083 212.117 10.3856 212.639 10.7403C213.162 11.0856 213.554 11.5663 213.815 12.1823L212.639 12.6723C212.275 11.8136 211.636 11.3843 210.721 11.3843C210.133 11.3843 209.625 11.6223 209.195 12.0983C208.775 12.5743 208.565 13.1623 208.565 13.8623C208.565 14.5623 208.775 15.1503 209.195 15.6263C209.625 16.1023 210.133 16.3403 210.721 16.3403C211.664 16.3403 212.327 15.911 212.709 15.0523L213.857 15.5423C213.605 16.1583 213.209 16.6436 212.667 16.9983C212.135 17.3436 211.515 17.5163 210.805 17.5163ZM216.003 15.1923C216.003 15.5283 216.143 15.8083 216.423 16.0323C216.713 16.2563 217.049 16.3683 217.431 16.3683C217.973 16.3683 218.453 16.1676 218.873 15.7663C219.303 15.365 219.517 14.8936 219.517 14.3523C219.116 14.035 218.556 13.8763 217.837 13.8763C217.315 13.8763 216.876 14.0023 216.521 14.2543C216.176 14.5063 216.003 14.819 216.003 15.1923ZM217.669 10.2083C218.621 10.2083 219.373 10.465 219.923 10.9783C220.474 11.4823 220.749 12.1776 220.749 13.0643V17.2923H219.517V16.3403H219.461C218.929 17.1243 218.22 17.5163 217.333 17.5163C216.577 17.5163 215.943 17.2923 215.429 16.8443C214.925 16.3963 214.673 15.8363 214.673 15.1643C214.673 14.455 214.939 13.8903 215.471 13.4703C216.013 13.0503 216.731 12.8403 217.627 12.8403C218.393 12.8403 219.023 12.9803 219.517 13.2603V12.9663C219.517 12.5183 219.34 12.1403 218.985 11.8323C218.631 11.515 218.215 11.3563 217.739 11.3563C217.021 11.3563 216.451 11.6596 216.031 12.2663L214.897 11.5523C215.523 10.6563 216.447 10.2083 217.669 10.2083ZM227.534 15.3883C227.534 15.9856 227.272 16.4896 226.75 16.9003C226.227 17.311 225.569 17.5163 224.776 17.5163C224.085 17.5163 223.478 17.339 222.956 16.9843C222.433 16.6203 222.06 16.1443 221.836 15.5563L222.984 15.0663C223.152 15.477 223.394 15.799 223.712 16.0323C224.038 16.2563 224.393 16.3683 224.776 16.3683C225.186 16.3683 225.527 16.2796 225.798 16.1023C226.078 15.925 226.218 15.715 226.218 15.4723C226.218 15.0336 225.882 14.7116 225.21 14.5063L224.034 14.2123C222.699 13.8763 222.032 13.2323 222.032 12.2803C222.032 11.655 222.284 11.1556 222.788 10.7823C223.301 10.3996 223.954 10.2083 224.748 10.2083C225.354 10.2083 225.9 10.353 226.386 10.6423C226.88 10.9316 227.226 11.319 227.422 11.8043L226.274 12.2803C226.143 11.991 225.928 11.767 225.63 11.6083C225.34 11.4403 225.014 11.3563 224.65 11.3563C224.314 11.3563 224.01 11.4403 223.74 11.6083C223.478 11.7763 223.348 11.9816 223.348 12.2243C223.348 12.6163 223.716 12.8963 224.454 13.0643L225.49 13.3303C226.852 13.6663 227.534 14.3523 227.534 15.3883ZM231.452 17.4043C230.892 17.4043 230.426 17.2316 230.052 16.8863C229.688 16.541 229.502 16.0603 229.492 15.4443V11.6083H228.288V10.4323H229.492V8.3323H230.78V10.4323H232.46V11.6083H230.78V15.0243C230.78 15.4816 230.869 15.7943 231.046 15.9623C231.224 16.121 231.424 16.2003 231.648 16.2003C231.751 16.2003 231.849 16.191 231.942 16.1723C232.045 16.1443 232.138 16.1116 232.222 16.0743L232.628 17.2223C232.292 17.3436 231.9 17.4043 231.452 17.4043Z" fill="black"/>
<path fill-rule="evenodd" clip-rule="evenodd" d="M73.441 113.125L49.5662 132.292V162.292H351.566V105.792C342.353 113.69 331.47 119.397 319.734 122.485L318.566 122.792L309.066 120.792L290.066 110.792L289.863 110.831C283.196 112.101 276.296 111.073 270.288 107.914L250.076 97.287C238.092 90.9862 223.859 90.6187 211.566 96.2924L192.566 107.792L178.566 111.792C169.024 115.927 158.168 115.807 148.721 111.459L143.6 109.102C136.341 105.76 127.931 106.04 120.91 109.855L119.743 110.49C113.068 114.117 105.026 114.188 98.2882 110.679C90.2536 106.494 80.5052 107.454 73.441 113.125Z" fill="url(#paint0_linear_166_144)" fill-opacity="0.2"/>
<path d="M15.3662 57.3483V68.2923H13.8942V59.1723L11.7662 60.1003L11.2062 58.8523L14.4222 57.3483H15.3662ZM17.4108 62.8203C17.4108 61.1563 17.8215 59.7856 18.6428 58.7083C19.4641 57.631 20.5201 57.0923 21.8108 57.0923C23.1015 57.0923 24.1575 57.6363 24.9788 58.7243C25.8001 59.8016 26.2108 61.167 26.2108 62.8203C26.2108 64.463 25.8001 65.8336 24.9788 66.9323C24.1575 68.0096 23.1015 68.5483 21.8108 68.5483C20.5201 68.5483 19.4641 68.0096 18.6428 66.9323C17.8215 65.8336 17.4108 64.463 17.4108 62.8203ZM24.7068 62.8203C24.7068 61.5616 24.4401 60.527 23.9068 59.7163C23.3841 58.9056 22.6855 58.5003 21.8108 58.5003C20.9361 58.5003 20.2375 58.9056 19.7148 59.7163C19.1815 60.527 18.9148 61.5616 18.9148 62.8203C18.9148 64.079 19.1815 65.119 19.7148 65.9403C20.2375 66.7403 20.9361 67.1403 21.8108 67.1403C22.6855 67.1403 23.3841 66.735 23.9068 65.9243C24.4401 65.103 24.7068 64.0683 24.7068 62.8203ZM31.5979 59.1563C31.5979 59.7323 31.3899 60.2176 30.9739 60.6123C30.5686 61.0176 30.0832 61.2203 29.5179 61.2203C28.9526 61.2203 28.4566 61.0176 28.0299 60.6123C27.6246 60.207 27.4219 59.7216 27.4219 59.1563C27.4219 58.591 27.6246 58.1056 28.0299 57.7003C28.4566 57.295 28.9526 57.0923 29.5179 57.0923C30.0939 57.0923 30.5846 57.295 30.9899 57.7003C31.3952 58.1056 31.5979 58.591 31.5979 59.1563ZM29.5179 60.1963C29.7846 60.1963 30.0139 60.095 30.2059 59.8923C30.4086 59.679 30.5099 59.4336 30.5099 59.1563C30.5206 58.8576 30.4192 58.6123 30.2059 58.4203C29.9926 58.2176 29.7526 58.1163 29.4859 58.1163C29.2192 58.1163 28.9899 58.2176 28.7979 58.4203C28.6059 58.6016 28.5099 58.831 28.5099 59.1083C28.5099 59.247 28.5312 59.3856 28.5739 59.5243C28.6272 59.6523 28.6966 59.7696 28.7819 59.8763C28.8779 59.9723 28.9846 60.0523 29.1019 60.1163C29.2299 60.1803 29.3686 60.207 29.5179 60.1963Z" fill="black"/>
<path d="M52.0262 185.292H50.6462V174.552H52.0262L55.7612 181.092H55.8212L59.5562 174.552H60.9362V185.292H59.5562V178.917L59.6162 177.117H59.5562L56.1962 183.012H55.3862L52.0262 177.117H51.9662L52.0262 178.917V185.292ZM62.5873 181.617C62.5873 180.487 62.9423 179.552 63.6523 178.812C64.3723 178.072 65.2773 177.702 66.3673 177.702C67.4573 177.702 68.3573 178.072 69.0673 178.812C69.7873 179.552 70.1473 180.487 70.1473 181.617C70.1473 182.757 69.7873 183.692 69.0673 184.422C68.3573 185.162 67.4573 185.532 66.3673 185.532C65.2773 185.532 64.3723 185.162 63.6523 184.422C62.9423 183.682 62.5873 182.747 62.5873 181.617ZM63.9673 181.617C63.9673 182.407 64.1973 183.047 64.6573 183.537C65.1173 184.027 65.6873 184.272 66.3673 184.272C67.0473 184.272 67.6173 184.027 68.0773 183.537C68.5373 183.047 68.7673 182.407 68.7673 181.617C68.7673 180.837 68.5373 180.202 68.0773 179.712C67.6073 179.212 67.0373 178.962 66.3673 178.962C65.6973 178.962 65.1273 179.212 64.6573 179.712C64.1973 180.202 63.9673 180.837 63.9673 181.617ZM71.4044 177.942H72.7244V178.962H72.7844C72.9944 178.602 73.3144 178.302 73.7444 178.062C74.1844 177.822 74.6394 177.702 75.1094 177.702C76.0094 177.702 76.6994 177.962 77.1794 178.482C77.6694 178.992 77.9144 179.722 77.9144 180.672V185.292H76.5344V180.762C76.5044 179.562 75.8994 178.962 74.7194 178.962C74.1694 178.962 73.7094 179.187 73.3394 179.637C72.9694 180.077 72.7844 180.607 72.7844 181.227V185.292H71.4044V177.942Z" fill="black"/>
<path d="M106.306 175.872V185.292H104.926V175.872H101.926V174.552H109.306V175.872H106.306ZM116.213 185.292H114.893V184.272H114.833C114.623 184.632 114.298 184.932 113.858 185.172C113.428 185.412 112.978 185.532 112.508 185.532C111.608 185.532 110.913 185.277 110.423 184.767C109.943 184.247 109.703 183.512 109.703 182.562V177.942H111.083V182.472C111.113 183.672 111.718 184.272 112.898 184.272C113.448 184.272 113.908 184.052 114.278 183.612C114.648 183.162 114.833 182.627 114.833 182.007V177.942H116.213V185.292ZM121.27 185.532C120.19 185.532 119.3 185.162 118.6 184.422C117.9 183.682 117.55 182.747 117.55 181.617C117.55 180.497 117.89 179.567 118.57 178.827C119.25 178.077 120.12 177.702 121.18 177.702C122.27 177.702 123.135 178.057 123.775 178.767C124.425 179.467 124.75 180.452 124.75 181.722L124.735 181.872H118.96C118.98 182.592 119.22 183.172 119.68 183.612C120.14 184.052 120.69 184.272 121.33 184.272C122.21 184.272 122.9 183.832 123.4 182.952L124.63 183.552C124.3 184.172 123.84 184.657 123.25 185.007C122.67 185.357 122.01 185.532 121.27 185.532ZM119.065 180.732H123.28C123.24 180.222 123.03 179.802 122.65 179.472C122.28 179.132 121.78 178.962 121.15 178.962C120.63 178.962 120.18 179.122 119.8 179.442C119.43 179.762 119.185 180.192 119.065 180.732Z" fill="black"/>
<path d="M158.716 174.552H160.156L157.291 185.292H155.881L153.571 178.212H153.511L151.201 185.292H149.791L146.806 174.552H148.246L150.511 182.997H150.571L152.896 175.992H154.186L156.511 182.997H156.571L158.716 174.552ZM163.864 185.532C162.784 185.532 161.894 185.162 161.194 184.422C160.494 183.682 160.144 182.747 160.144 181.617C160.144 180.497 160.484 179.567 161.164 178.827C161.844 178.077 162.714 177.702 163.774 177.702C164.864 177.702 165.729 178.057 166.369 178.767C167.019 179.467 167.344 180.452 167.344 181.722L167.329 181.872H161.554C161.574 182.592 161.814 183.172 162.274 183.612C162.734 184.052 163.284 184.272 163.924 184.272C164.804 184.272 165.494 183.832 165.994 182.952L167.224 183.552C166.894 184.172 166.434 184.657 165.844 185.007C165.264 185.357 164.604 185.532 163.864 185.532ZM161.659 180.732H165.874C165.834 180.222 165.624 179.802 165.244 179.472C164.874 179.132 164.374 178.962 163.744 178.962C163.224 178.962 162.774 179.122 162.394 179.442C162.024 179.762 161.779 180.192 161.659 180.732ZM168.756 177.942H170.076V178.962H170.136C170.346 178.602 170.666 178.302 171.096 178.062C171.536 177.822 171.991 177.702 172.461 177.702C173.361 177.702 174.051 177.962 174.531 178.482C175.021 178.992 175.266 179.722 175.266 180.672V185.292H173.886V180.762C173.856 179.562 173.251 178.962 172.071 178.962C171.521 178.962 171.061 179.187 170.691 179.637C170.321 180.077 170.136 180.607 170.136 181.227V185.292H168.756V177.942Z" fill="black"/>
<path d="M202.306 175.872V185.292H200.926V175.872H197.926V174.552H205.306V175.872H202.306ZM206.657 174.552H208.037V177.942L207.977 178.962H208.037C208.247 178.602 208.567 178.302 208.997 178.062C209.437 177.822 209.892 177.702 210.362 177.702C211.262 177.702 211.952 177.962 212.432 178.482C212.922 178.992 213.167 179.722 213.167 180.672V185.292H211.787V180.942C211.787 179.622 211.202 178.962 210.032 178.962C209.472 178.962 208.997 179.197 208.607 179.667C208.227 180.127 208.037 180.667 208.037 181.287V185.292H206.657V174.552ZM221.387 185.292H220.067V184.272H220.007C219.797 184.632 219.472 184.932 219.032 185.172C218.602 185.412 218.152 185.532 217.682 185.532C216.782 185.532 216.087 185.277 215.597 184.767C215.117 184.247 214.877 183.512 214.877 182.562V177.942H216.257V182.472C216.287 183.672 216.892 184.272 218.072 184.272C218.622 184.272 219.082 184.052 219.452 183.612C219.822 183.162 220.007 182.627 220.007 182.007V177.942H221.387V185.292Z" fill="black"/>
<path d="M246.026 180.687V185.292H244.646V174.552H250.916V175.872H246.026V179.397H250.436V180.687H246.026ZM253.48 185.292H252.1V177.942H253.42V179.142H253.48C253.62 178.752 253.905 178.422 254.335 178.152C254.775 177.872 255.205 177.732 255.625 177.732C256.025 177.732 256.365 177.792 256.645 177.912L256.225 179.247C256.055 179.177 255.785 179.142 255.415 179.142C254.895 179.142 254.44 179.352 254.05 179.772C253.67 180.192 253.48 180.682 253.48 181.242V185.292ZM259.484 175.407C259.484 175.677 259.389 175.907 259.199 176.097C259.009 176.287 258.779 176.382 258.509 176.382C258.239 176.382 258.009 176.287 257.819 176.097C257.629 175.907 257.534 175.677 257.534 175.407C257.534 175.137 257.629 174.907 257.819 174.717C258.009 174.527 258.239 174.432 258.509 174.432C258.779 174.432 259.009 174.527 259.199 174.717C259.389 174.907 259.484 175.137 259.484 175.407ZM259.199 177.942V185.292H257.819V177.942H259.199Z" fill="black"/>
<path d="M288.276 182.427C288.276 183.367 287.931 184.122 287.241 184.692C286.541 185.252 285.691 185.532 284.691 185.532C283.801 185.532 283.016 185.272 282.336 184.752C281.656 184.232 281.186 183.522 280.926 182.622L282.246 182.082C282.336 182.402 282.461 182.692 282.621 182.952C282.781 183.212 282.966 183.437 283.176 183.627C283.396 183.807 283.636 183.952 283.896 184.062C284.156 184.162 284.431 184.212 284.721 184.212C285.351 184.212 285.866 184.052 286.266 183.732C286.666 183.402 286.866 182.967 286.866 182.427C286.866 181.977 286.701 181.592 286.371 181.272C286.061 180.962 285.481 180.662 284.631 180.372C283.771 180.062 283.236 179.852 283.026 179.742C281.886 179.162 281.316 178.307 281.316 177.177C281.316 176.387 281.631 175.712 282.261 175.152C282.901 174.592 283.686 174.312 284.616 174.312C285.436 174.312 286.146 174.522 286.746 174.942C287.346 175.352 287.746 175.867 287.946 176.487L286.656 177.027C286.536 176.627 286.296 176.297 285.936 176.037C285.586 175.767 285.156 175.632 284.646 175.632C284.106 175.632 283.651 175.782 283.281 176.082C282.911 176.362 282.726 176.727 282.726 177.177C282.726 177.547 282.871 177.867 283.161 178.137C283.481 178.407 284.176 178.727 285.246 179.097C286.336 179.467 287.111 179.922 287.571 180.462C288.041 180.992 288.276 181.647 288.276 182.427ZM290.852 183.042C290.852 183.402 291.002 183.702 291.302 183.942C291.612 184.182 291.972 184.302 292.382 184.302C292.962 184.302 293.477 184.087 293.927 183.657C294.387 183.227 294.617 182.722 294.617 182.142C294.187 181.802 293.587 181.632 292.817 181.632C292.257 181.632 291.787 181.767 291.407 182.037C291.037 182.307 290.852 182.642 290.852 183.042ZM292.637 177.702C293.657 177.702 294.462 177.977 295.052 178.527C295.642 179.067 295.937 179.812 295.937 180.762V185.292H294.617V184.272H294.557C293.987 185.112 293.227 185.532 292.277 185.532C291.467 185.532 290.787 185.292 290.237 184.812C289.697 184.332 289.427 183.732 289.427 183.012C289.427 182.252 289.712 181.647 290.282 181.197C290.862 180.747 291.632 180.522 292.592 180.522C293.412 180.522 294.087 180.672 294.617 180.972V180.657C294.617 180.177 294.427 179.772 294.047 179.442C293.667 179.102 293.222 178.932 292.712 178.932C291.942 178.932 291.332 179.257 290.882 179.907L289.667 179.142C290.337 178.182 291.327 177.702 292.637 177.702ZM300.407 185.412C299.807 185.412 299.307 185.227 298.907 184.857C298.517 184.487 298.317 183.972 298.307 183.312V179.202H297.017V177.942H298.307V175.692H299.687V177.942H301.487V179.202H299.687V182.862C299.687 183.352 299.782 183.687 299.972 183.867C300.162 184.037 300.377 184.122 300.617 184.122C300.727 184.122 300.832 184.112 300.932 184.092C301.042 184.062 301.142 184.027 301.232 183.987L301.667 185.217C301.307 185.347 300.887 185.412 300.407 185.412Z" fill="black"/>
<path d="M331.276 182.427C331.276 183.367 330.931 184.122 330.241 184.692C329.541 185.252 328.691 185.532 327.691 185.532C326.801 185.532 326.016 185.272 325.336 184.752C324.656 184.232 324.186 183.522 323.926 182.622L325.246 182.082C325.336 182.402 325.461 182.692 325.621 182.952C325.781 183.212 325.966 183.437 326.176 183.627C326.396 183.807 326.636 183.952 326.896 184.062C327.156 184.162 327.431 184.212 327.721 184.212C328.351 184.212 328.866 184.052 329.266 183.732C329.666 183.402 329.866 182.967 329.866 182.427C329.866 181.977 329.701 181.592 329.371 181.272C329.061 180.962 328.481 180.662 327.631 180.372C326.771 180.062 326.236 179.852 326.026 179.742C324.886 179.162 324.316 178.307 324.316 177.177C324.316 176.387 324.631 175.712 325.261 175.152C325.901 174.592 326.686 174.312 327.616 174.312C328.436 174.312 329.146 174.522 329.746 174.942C330.346 175.352 330.746 175.867 330.946 176.487L329.656 177.027C329.536 176.627 329.296 176.297 328.936 176.037C328.586 175.767 328.156 175.632 327.646 175.632C327.106 175.632 326.651 175.782 326.281 176.082C325.911 176.362 325.726 176.727 325.726 177.177C325.726 177.547 325.871 177.867 326.161 178.137C326.481 178.407 327.176 178.727 328.246 179.097C329.336 179.467 330.111 179.922 330.571 180.462C331.041 180.992 331.276 181.647 331.276 182.427ZM339.077 185.292H337.757V184.272H337.697C337.487 184.632 337.162 184.932 336.722 185.172C336.292 185.412 335.842 185.532 335.372 185.532C334.472 185.532 333.777 185.277 333.287 184.767C332.807 184.247 332.567 183.512 332.567 182.562V177.942H333.947V182.472C333.977 183.672 334.582 184.272 335.762 184.272C336.312 184.272 336.772 184.052 337.142 183.612C337.512 183.162 337.697 182.627 337.697 182.007V177.942H339.077V185.292ZM340.907 177.942H342.227V178.962H342.287C342.497 178.602 342.817 178.302 343.247 178.062C343.687 177.822 344.142 177.702 344.612 177.702C345.512 177.702 346.202 177.962 346.682 178.482C347.172 178.992 347.417 179.722 347.417 180.672V185.292H346.037V180.762C346.007 179.562 345.402 178.962 344.222 178.962C343.672 178.962 343.212 179.187 342.842 179.637C342.472 180.077 342.287 180.607 342.287 181.227V185.292H340.907V177.942Z" fill="black"/>
<line x1="43.0662" y1="61.2923" x2="345.066" y2="61.2923" stroke="black" stroke-opacity="0.13" stroke-width="2"/>
<line x1="49.5662" y1="105.292" x2="351.566" y2="105.292" stroke="black" stroke-opacity="0.13" stroke-width="2"/>
<line x1="49.5662" y1="147.292" x2="351.566" y2="147.292" stroke="black" stroke-opacity="0.13" stroke-width="2"/>
<line x1="228.566" y1="166.292" x2="228.566" y2="91.2923" stroke="#21005D" stroke-width="2" stroke-dasharray="6 6"/>
<path d="M205.566 64.2923C205.566 58.2172 210.491 53.2923 216.566 53.2923H240.566C246.641 53.2923 251.566 58.2172 251.566 64.2923C251.566 70.3674 246.641 75.2923 240.566 75.2923H233.701C232.654 75.2923 231.65 75.7081 230.91 76.4482C229.616 77.7428 227.517 77.7428 226.222 76.4482C225.482 75.7081 224.478 75.2923 223.431 75.2923H216.566C210.491 75.2923 205.566 70.3674 205.566 64.2923Z" fill="white"/>
<path d="M230.44 66.5763C230.44 67.4163 230.127 68.1163 229.502 68.6763C228.886 69.2363 228.121 69.5163 227.206 69.5163C226.487 69.5163 225.839 69.3016 225.26 68.8723C224.672 68.4243 224.275 67.841 224.07 67.1223L225.246 66.6323C225.395 67.1643 225.638 67.575 225.974 67.8643C226.319 68.1443 226.73 68.2843 227.206 68.2843C227.729 68.2843 228.181 68.121 228.564 67.7943C228.937 67.4583 229.124 67.0523 229.124 66.5763C229.124 66.1003 228.928 65.699 228.536 65.3723C228.153 65.0456 227.691 64.8823 227.15 64.8823H226.324V63.6783H227.052C227.565 63.6783 227.985 63.5383 228.312 63.2583C228.639 62.969 228.802 62.5956 228.802 62.1383C228.802 61.7183 228.648 61.3776 228.34 61.1163C228.032 60.855 227.626 60.7243 227.122 60.7243C226.31 60.7243 225.755 61.1396 225.456 61.9703L224.266 61.4663C224.481 60.8783 224.84 60.4023 225.344 60.0383C225.848 59.6743 226.441 59.4923 227.122 59.4923C227.971 59.4923 228.685 59.7443 229.264 60.2483C229.833 60.7336 230.118 61.3636 230.118 62.1383C230.118 63.0623 229.689 63.7483 228.83 64.1963V64.2523C229.334 64.467 229.726 64.7796 230.006 65.1903C230.295 65.601 230.44 66.063 230.44 66.5763ZM235.106 61.2983C235.106 61.8023 234.924 62.227 234.56 62.5723C234.205 62.927 233.78 63.1043 233.286 63.1043C232.791 63.1043 232.357 62.927 231.984 62.5723C231.629 62.2176 231.452 61.793 231.452 61.2983C231.452 60.8036 231.629 60.379 231.984 60.0243C232.357 59.6696 232.791 59.4923 233.286 59.4923C233.79 59.4923 234.219 59.6696 234.574 60.0243C234.928 60.379 235.106 60.8036 235.106 61.2983ZM233.286 62.2083C233.519 62.2083 233.72 62.1196 233.888 61.9423C234.065 61.7556 234.154 61.541 234.154 61.2983C234.163 61.037 234.074 60.8223 233.888 60.6543C233.701 60.477 233.491 60.3883 233.258 60.3883C233.024 60.3883 232.824 60.477 232.656 60.6543C232.488 60.813 232.404 61.0136 232.404 61.2563C232.404 61.3776 232.422 61.499 232.46 61.6203C232.506 61.7323 232.567 61.835 232.642 61.9283C232.726 62.0123 232.819 62.0823 232.922 62.1383C233.034 62.1943 233.155 62.2176 233.286 62.2083Z" fill="black"/>
<defs>
<linearGradient id="paint0_linear_166_144" x1="200.566" y1="95.2415" x2="200.566" y2="162.292" gradientUnits="userSpaceOnUse">
<stop stop-color="#2B00A5"/>
<stop offset="1" stop-color="#120045" stop-opacity="0"/>
</linearGradient>
</defs>
</svg>
