<svg width="17" height="17" viewBox="0 0 17 17" fill="none" xmlns="http://www.w3.org/2000/svg">
<mask id="mask0_1_769" style="mask-type:alpha" maskUnits="userSpaceOnUse" x="0" y="0" width="17" height="17">
<rect x="0.566162" y="0.292297" width="16" height="16" fill="#D9D9D9"/>
</mask>
<g mask="url(#mask0_1_769)">
<path d="M10.7662 11.4256L7.89953 8.55897V4.95897H9.23286V8.02563L11.6995 10.4923L10.7662 11.4256ZM2.46619 11.009C2.32175 10.6867 2.20508 10.3534 2.11619 10.009C2.02731 9.66452 1.96619 9.31452 1.93286 8.95897H3.28286C3.31619 9.1923 3.36331 9.42563 3.42419 9.65897C3.48553 9.8923 3.56064 10.1201 3.64953 10.3423L2.46619 11.009ZM1.93286 7.62563C1.96619 7.27008 2.02731 6.91719 2.11619 6.56697C2.20508 6.21719 2.32731 5.88119 2.48286 5.55897L3.64953 6.22563C3.56064 6.44785 3.48553 6.67563 3.42419 6.90897C3.36331 7.1423 3.31619 7.38119 3.28286 7.62563H1.93286ZM4.68286 13.7256C4.38286 13.5034 4.10508 13.2616 3.84953 13.0003C3.59397 12.7394 3.35508 12.459 3.13286 12.159L4.29953 11.4923C4.45508 11.6923 4.61908 11.8783 4.79153 12.0503C4.96353 12.2227 5.14953 12.3867 5.34953 12.5423L4.68286 13.7256ZM4.31619 5.07563L3.13286 4.40897C3.35508 4.10897 3.59397 3.83119 3.84953 3.57563C4.10508 3.32008 4.38286 3.08119 4.68286 2.85897L5.34953 4.0423C5.16064 4.19785 4.98019 4.36163 4.80819 4.53363C4.63575 4.70608 4.47175 4.88674 4.31619 5.07563ZM7.89953 14.9256C7.54397 14.8923 7.19131 14.8312 6.84153 14.7423C6.49131 14.6534 6.15508 14.5312 5.83286 14.3756L6.49953 13.209C6.72175 13.2979 6.94953 13.3727 7.18286 13.4336C7.41619 13.495 7.65508 13.5423 7.89953 13.5756V14.9256ZM6.49953 3.37563L5.83286 2.20897C6.15508 2.05341 6.49131 1.93119 6.84153 1.8423C7.19131 1.75341 7.54397 1.6923 7.89953 1.65897V3.00897C7.65508 3.0423 7.41619 3.08941 7.18286 3.1503C6.94953 3.21163 6.72175 3.28674 6.49953 3.37563ZM9.23286 14.9256V13.5756C9.47731 13.5423 9.71619 13.495 9.94953 13.4336C10.1829 13.3727 10.4106 13.2979 10.6329 13.209L11.2995 14.3756C10.9773 14.5312 10.6413 14.6534 10.2915 14.7423C9.94131 14.8312 9.58842 14.8923 9.23286 14.9256ZM10.6329 3.37563C10.4106 3.28674 10.1829 3.21163 9.94953 3.1503C9.71619 3.08941 9.47731 3.0423 9.23286 3.00897V1.65897C9.58842 1.6923 9.94131 1.75341 10.2915 1.8423C10.6413 1.93119 10.9773 2.05341 11.2995 2.20897L10.6329 3.37563ZM12.4495 13.7256L11.7829 12.5423C11.9718 12.3867 12.1524 12.2227 12.3249 12.0503C12.4969 11.8783 12.6606 11.6979 12.8162 11.509L13.9995 12.1756C13.7773 12.4756 13.5384 12.7561 13.2829 13.017C13.0273 13.2783 12.7495 13.5145 12.4495 13.7256ZM12.8162 5.07563C12.6606 4.88674 12.4969 4.70608 12.3249 4.53363C12.1524 4.36163 11.9718 4.19785 11.7829 4.0423L12.4495 2.85897C12.7495 3.07008 13.0273 3.30341 13.2829 3.55897C13.5384 3.81452 13.7718 4.0923 13.9829 4.3923L12.8162 5.07563ZM13.8495 7.62563C13.8162 7.38119 13.7691 7.1423 13.7082 6.90897C13.6469 6.67563 13.5717 6.44785 13.4829 6.22563L14.6495 5.5423C14.794 5.87563 14.9135 6.21719 15.0082 6.56697C15.1024 6.91719 15.1662 7.27008 15.1995 7.62563H13.8495ZM14.6495 11.0256L13.4829 10.359C13.5717 10.1367 13.6469 9.90897 13.7082 9.67563C13.7691 9.4423 13.8162 9.20341 13.8495 8.95897H15.1995C15.1662 9.31452 15.1051 9.66719 15.0162 10.017C14.9273 10.3672 14.8051 10.7034 14.6495 11.0256Z" fill="#1C1B1F"/>
</g>
</svg>
